<mxfile host="app.diagrams.net" modified="2023-04-24T17:53:02.355Z" agent="Mozilla/5.0 (Windows NT 10.0; Win64; x64) AppleWebKit/537.36 (KHTML, like Gecko) Chrome/112.0.0.0 Safari/537.36" etag="5eN4kta_SLBbwX0oIqa3" version="21.2.1" type="device">
  <diagram id="R2lEEEUBdFMjLlhIrx00" name="Page-1">
    <mxGraphModel dx="4100" dy="2487" grid="1" gridSize="6" guides="1" tooltips="1" connect="1" arrows="1" fold="1" page="1" pageScale="1" pageWidth="1100" pageHeight="850" math="0" shadow="0" extFonts="Permanent Marker^https://fonts.googleapis.com/css?family=Permanent+Marker">
      <root>
        <mxCell id="0" />
        <mxCell id="1" parent="0" />
        <mxCell id="qMSzoUYjXAtZMEOYpRWG-4" value="Library" style="whiteSpace=wrap;html=1;align=center;fillColor=#B5739D;strokeColor=#CDA2BE;" parent="1" vertex="1">
          <mxGeometry x="425" y="348" width="135" height="40" as="geometry" />
        </mxCell>
        <mxCell id="qMSzoUYjXAtZMEOYpRWG-6" value="Library ID" style="ellipse;whiteSpace=wrap;html=1;align=center;fillColor=#fff2cc;strokeColor=#d6b656;" parent="1" vertex="1">
          <mxGeometry x="310" y="488" width="100" height="40" as="geometry" />
        </mxCell>
        <mxCell id="qMSzoUYjXAtZMEOYpRWG-13" value="" style="endArrow=none;html=1;rounded=0;entryX=0.424;entryY=0.045;entryDx=0;entryDy=0;entryPerimeter=0;" parent="1" target="qMSzoUYjXAtZMEOYpRWG-14" edge="1">
          <mxGeometry relative="1" as="geometry">
            <mxPoint x="516" y="388" as="sourcePoint" />
            <mxPoint x="525" y="428" as="targetPoint" />
            <Array as="points">
              <mxPoint x="516" y="428" />
              <mxPoint x="610" y="428" />
            </Array>
          </mxGeometry>
        </mxCell>
        <mxCell id="qMSzoUYjXAtZMEOYpRWG-14" value="Library Name" style="ellipse;whiteSpace=wrap;html=1;align=center;fillColor=#fff2cc;strokeColor=#d6b656;" parent="1" vertex="1">
          <mxGeometry x="570" y="488" width="100" height="40" as="geometry" />
        </mxCell>
        <mxCell id="qMSzoUYjXAtZMEOYpRWG-17" value="" style="endArrow=none;html=1;rounded=0;entryX=0.5;entryY=0;entryDx=0;entryDy=0;" parent="1" target="qMSzoUYjXAtZMEOYpRWG-6" edge="1">
          <mxGeometry relative="1" as="geometry">
            <mxPoint x="480" y="388" as="sourcePoint" />
            <mxPoint x="350" y="448" as="targetPoint" />
            <Array as="points">
              <mxPoint x="480" y="428" />
              <mxPoint x="360" y="428" />
            </Array>
          </mxGeometry>
        </mxCell>
        <mxCell id="qMSzoUYjXAtZMEOYpRWG-18" value="" style="endArrow=none;html=1;rounded=0;" parent="1" edge="1">
          <mxGeometry relative="1" as="geometry">
            <mxPoint x="500" y="388" as="sourcePoint" />
            <mxPoint x="500" y="548" as="targetPoint" />
          </mxGeometry>
        </mxCell>
        <mxCell id="qMSzoUYjXAtZMEOYpRWG-19" value="Location" style="ellipse;whiteSpace=wrap;html=1;align=center;fillColor=#fff2cc;strokeColor=#d6b656;" parent="1" vertex="1">
          <mxGeometry x="450" y="538" width="100" height="40" as="geometry" />
        </mxCell>
        <mxCell id="qMSzoUYjXAtZMEOYpRWG-20" value="Contact No" style="ellipse;whiteSpace=wrap;html=1;align=center;fillColor=#fff2cc;strokeColor=#d6b656;" parent="1" vertex="1">
          <mxGeometry x="210" y="468" width="100" height="40" as="geometry" />
        </mxCell>
        <mxCell id="qMSzoUYjXAtZMEOYpRWG-21" value="" style="endArrow=none;html=1;rounded=0;exitX=0;exitY=1;exitDx=0;exitDy=0;" parent="1" source="qMSzoUYjXAtZMEOYpRWG-4" edge="1">
          <mxGeometry relative="1" as="geometry">
            <mxPoint x="480" y="408" as="sourcePoint" />
            <mxPoint x="270" y="468" as="targetPoint" />
            <Array as="points">
              <mxPoint x="270" y="388" />
            </Array>
          </mxGeometry>
        </mxCell>
        <mxCell id="qMSzoUYjXAtZMEOYpRWG-100" value="Books" style="whiteSpace=wrap;html=1;align=center;fillColor=#B5739D;strokeColor=#CDA2BE;" parent="1" vertex="1">
          <mxGeometry x="738" y="348" width="94" height="40" as="geometry" />
        </mxCell>
        <mxCell id="qMSzoUYjXAtZMEOYpRWG-101" value="" style="endArrow=none;html=1;rounded=0;exitX=0.628;exitY=0.997;exitDx=0;exitDy=0;exitPerimeter=0;" parent="1" source="qMSzoUYjXAtZMEOYpRWG-102" edge="1">
          <mxGeometry relative="1" as="geometry">
            <mxPoint x="720" y="432" as="sourcePoint" />
            <mxPoint x="768" y="348" as="targetPoint" />
            <Array as="points" />
          </mxGeometry>
        </mxCell>
        <mxCell id="qMSzoUYjXAtZMEOYpRWG-102" value="Book ID" style="ellipse;whiteSpace=wrap;html=1;align=center;fillColor=#fff2cc;strokeColor=#d6b656;" parent="1" vertex="1">
          <mxGeometry x="618" y="264" width="100" height="40" as="geometry" />
        </mxCell>
        <mxCell id="qMSzoUYjXAtZMEOYpRWG-104" value="Book Title" style="ellipse;whiteSpace=wrap;html=1;align=center;fillColor=#fff2cc;strokeColor=#d6b656;" parent="1" vertex="1">
          <mxGeometry x="858" y="420" width="100" height="40" as="geometry" />
        </mxCell>
        <mxCell id="qMSzoUYjXAtZMEOYpRWG-105" value="Book Price" style="ellipse;whiteSpace=wrap;html=1;align=center;fillColor=#fff2cc;strokeColor=#d6b656;" parent="1" vertex="1">
          <mxGeometry x="792" y="468" width="100" height="40" as="geometry" />
        </mxCell>
        <mxCell id="qMSzoUYjXAtZMEOYpRWG-106" value="Book Status" style="ellipse;whiteSpace=wrap;html=1;align=center;fillColor=#fff2cc;strokeColor=#d6b656;" parent="1" vertex="1">
          <mxGeometry x="882" y="264" width="100" height="40" as="geometry" />
        </mxCell>
        <mxCell id="qMSzoUYjXAtZMEOYpRWG-108" value="" style="endArrow=none;html=1;rounded=0;exitX=0.5;exitY=1;exitDx=0;exitDy=0;" parent="1" source="qMSzoUYjXAtZMEOYpRWG-106" edge="1">
          <mxGeometry relative="1" as="geometry">
            <mxPoint x="504" y="384" as="sourcePoint" />
            <mxPoint x="798" y="348" as="targetPoint" />
            <Array as="points" />
          </mxGeometry>
        </mxCell>
        <mxCell id="qMSzoUYjXAtZMEOYpRWG-118" value="has" style="shape=rhombus;perimeter=rhombusPerimeter;whiteSpace=wrap;html=1;align=center;fillColor=#d5e8d4;strokeColor=#82b366;" parent="1" vertex="1">
          <mxGeometry x="612" y="345" width="72" height="46" as="geometry" />
        </mxCell>
        <mxCell id="qMSzoUYjXAtZMEOYpRWG-120" value="" style="edgeStyle=entityRelationEdgeStyle;fontSize=12;html=1;endArrow=ERone;endFill=1;rounded=0;entryX=1;entryY=0.5;entryDx=0;entryDy=0;" parent="1" source="qMSzoUYjXAtZMEOYpRWG-118" target="qMSzoUYjXAtZMEOYpRWG-4" edge="1">
          <mxGeometry width="100" height="100" relative="1" as="geometry">
            <mxPoint x="432" y="430" as="sourcePoint" />
            <mxPoint x="532" y="330" as="targetPoint" />
          </mxGeometry>
        </mxCell>
        <mxCell id="qMSzoUYjXAtZMEOYpRWG-122" value="Author" style="whiteSpace=wrap;html=1;align=center;fillColor=#B5739D;strokeColor=#CDA2BE;" parent="1" vertex="1">
          <mxGeometry x="1110" y="345" width="100" height="40" as="geometry" />
        </mxCell>
        <mxCell id="qMSzoUYjXAtZMEOYpRWG-128" value="" style="endArrow=none;html=1;rounded=0;" parent="1" edge="1">
          <mxGeometry relative="1" as="geometry">
            <mxPoint x="1170" y="383" as="sourcePoint" />
            <mxPoint x="1172" y="497" as="targetPoint" />
            <Array as="points" />
          </mxGeometry>
        </mxCell>
        <mxCell id="qMSzoUYjXAtZMEOYpRWG-129" value="Author Subject" style="ellipse;whiteSpace=wrap;html=1;align=center;fillColor=#fff2cc;strokeColor=#d6b656;" parent="1" vertex="1">
          <mxGeometry x="1128" y="488" width="100" height="40" as="geometry" />
        </mxCell>
        <mxCell id="qMSzoUYjXAtZMEOYpRWG-134" value="Admin" style="rounded=1;arcSize=10;whiteSpace=wrap;html=1;align=center;fillColor=#B5739D;strokeColor=#CDA2BE;" parent="1" vertex="1">
          <mxGeometry x="-30" y="342" width="102" height="42" as="geometry" />
        </mxCell>
        <mxCell id="qMSzoUYjXAtZMEOYpRWG-135" value="" style="endArrow=none;html=1;rounded=0;" parent="1" edge="1">
          <mxGeometry relative="1" as="geometry">
            <mxPoint x="1122" y="234" as="sourcePoint" />
            <mxPoint x="1122" y="345" as="targetPoint" />
            <Array as="points" />
          </mxGeometry>
        </mxCell>
        <mxCell id="qMSzoUYjXAtZMEOYpRWG-137" value="" style="endArrow=none;html=1;rounded=0;" parent="1" edge="1">
          <mxGeometry relative="1" as="geometry">
            <mxPoint x="1188" y="345" as="sourcePoint" />
            <mxPoint x="1188" y="171" as="targetPoint" />
            <Array as="points" />
          </mxGeometry>
        </mxCell>
        <mxCell id="qMSzoUYjXAtZMEOYpRWG-138" value="Author Name" style="ellipse;whiteSpace=wrap;html=1;align=center;fillColor=#fff2cc;strokeColor=#d6b656;" parent="1" vertex="1">
          <mxGeometry x="1140" y="132" width="100" height="40" as="geometry" />
        </mxCell>
        <mxCell id="qMSzoUYjXAtZMEOYpRWG-139" value="" style="endArrow=none;html=1;rounded=0;entryX=0.3;entryY=0.053;entryDx=0;entryDy=0;entryPerimeter=0;" parent="1" target="qMSzoUYjXAtZMEOYpRWG-161" edge="1">
          <mxGeometry relative="1" as="geometry">
            <mxPoint x="-6" y="384" as="sourcePoint" />
            <mxPoint x="20" y="480" as="targetPoint" />
            <Array as="points" />
          </mxGeometry>
        </mxCell>
        <mxCell id="qMSzoUYjXAtZMEOYpRWG-148" value="" style="edgeStyle=entityRelationEdgeStyle;fontSize=12;html=1;endArrow=ERmany;rounded=0;exitX=1;exitY=0.5;exitDx=0;exitDy=0;" parent="1" source="qMSzoUYjXAtZMEOYpRWG-118" edge="1">
          <mxGeometry width="100" height="100" relative="1" as="geometry">
            <mxPoint x="684" y="367" as="sourcePoint" />
            <mxPoint x="738" y="367" as="targetPoint" />
          </mxGeometry>
        </mxCell>
        <mxCell id="qMSzoUYjXAtZMEOYpRWG-150" value="" style="fontSize=12;html=1;endArrow=ERmany;rounded=0;" parent="1" edge="1">
          <mxGeometry width="100" height="100" relative="1" as="geometry">
            <mxPoint x="924" y="368" as="sourcePoint" />
            <mxPoint x="834" y="368" as="targetPoint" />
            <Array as="points">
              <mxPoint x="906" y="368" />
            </Array>
          </mxGeometry>
        </mxCell>
        <mxCell id="qMSzoUYjXAtZMEOYpRWG-155" value="" style="endArrow=none;html=1;rounded=0;" parent="1" target="qMSzoUYjXAtZMEOYpRWG-141" edge="1">
          <mxGeometry relative="1" as="geometry">
            <mxPoint x="1122" y="237" as="sourcePoint" />
            <mxPoint x="1122" y="345" as="targetPoint" />
          </mxGeometry>
        </mxCell>
        <mxCell id="qMSzoUYjXAtZMEOYpRWG-141" value="Author ID" style="ellipse;whiteSpace=wrap;html=1;align=center;fillColor=#fff2cc;strokeColor=#d6b656;" parent="1" vertex="1">
          <mxGeometry x="1056" y="198" width="100" height="40" as="geometry" />
        </mxCell>
        <mxCell id="qMSzoUYjXAtZMEOYpRWG-157" value="Written By" style="shape=rhombus;perimeter=rhombusPerimeter;whiteSpace=wrap;html=1;align=center;fillColor=#d5e8d4;strokeColor=#82b366;" parent="1" vertex="1">
          <mxGeometry x="924" y="345" width="78" height="48" as="geometry" />
        </mxCell>
        <mxCell id="qMSzoUYjXAtZMEOYpRWG-161" value="Admin ID" style="ellipse;whiteSpace=wrap;html=1;align=center;fillColor=#fff2cc;strokeColor=#d6b656;" parent="1" vertex="1">
          <mxGeometry x="-66" y="460" width="100" height="40" as="geometry" />
        </mxCell>
        <mxCell id="qMSzoUYjXAtZMEOYpRWG-162" value="" style="endArrow=none;html=1;rounded=0;entryX=0.75;entryY=1;entryDx=0;entryDy=0;" parent="1" target="qMSzoUYjXAtZMEOYpRWG-134" edge="1">
          <mxGeometry relative="1" as="geometry">
            <mxPoint x="96" y="558" as="sourcePoint" />
            <mxPoint x="150" y="624" as="targetPoint" />
            <Array as="points" />
          </mxGeometry>
        </mxCell>
        <mxCell id="qMSzoUYjXAtZMEOYpRWG-163" value="Admin Name" style="ellipse;whiteSpace=wrap;html=1;align=center;fillColor=#fff2cc;strokeColor=#d6b656;" parent="1" vertex="1">
          <mxGeometry x="48" y="552" width="100" height="40" as="geometry" />
        </mxCell>
        <mxCell id="qMSzoUYjXAtZMEOYpRWG-164" value="" style="endArrow=none;html=1;rounded=0;" parent="1" edge="1">
          <mxGeometry relative="1" as="geometry">
            <mxPoint y="341" as="sourcePoint" />
            <mxPoint y="258" as="targetPoint" />
            <Array as="points" />
          </mxGeometry>
        </mxCell>
        <mxCell id="qMSzoUYjXAtZMEOYpRWG-165" value="Contact No" style="ellipse;whiteSpace=wrap;html=1;align=center;fillColor=#fff2cc;strokeColor=#d6b656;" parent="1" vertex="1">
          <mxGeometry x="-48" y="218" width="100" height="40" as="geometry" />
        </mxCell>
        <mxCell id="qMSzoUYjXAtZMEOYpRWG-179" value="" style="edgeStyle=entityRelationEdgeStyle;fontSize=12;html=1;endArrow=ERone;endFill=0;rounded=0;entryX=0;entryY=0.5;entryDx=0;entryDy=0;" parent="1" target="qMSzoUYjXAtZMEOYpRWG-4" edge="1">
          <mxGeometry width="100" height="100" relative="1" as="geometry">
            <mxPoint x="282" y="368" as="sourcePoint" />
            <mxPoint x="420" y="366" as="targetPoint" />
          </mxGeometry>
        </mxCell>
        <mxCell id="qMSzoUYjXAtZMEOYpRWG-190" value="Manage" style="shape=rhombus;perimeter=rhombusPerimeter;whiteSpace=wrap;html=1;align=center;fillColor=#d5e8d4;strokeColor=#82b366;" parent="1" vertex="1">
          <mxGeometry x="204" y="346.5" width="78" height="43" as="geometry" />
        </mxCell>
        <mxCell id="qMSzoUYjXAtZMEOYpRWG-195" value="" style="edgeStyle=entityRelationEdgeStyle;fontSize=12;html=1;endArrow=ERone;endFill=1;rounded=0;" parent="1" edge="1">
          <mxGeometry width="100" height="100" relative="1" as="geometry">
            <mxPoint x="174" y="366.89" as="sourcePoint" />
            <mxPoint x="102" y="366.89" as="targetPoint" />
          </mxGeometry>
        </mxCell>
        <mxCell id="qMSzoUYjXAtZMEOYpRWG-197" value="" style="fontSize=12;html=1;endArrow=ERmany;rounded=0;" parent="1" edge="1">
          <mxGeometry width="100" height="100" relative="1" as="geometry">
            <mxPoint x="780" y="540" as="sourcePoint" />
            <mxPoint x="780" y="388" as="targetPoint" />
            <Array as="points" />
          </mxGeometry>
        </mxCell>
        <mxCell id="qMSzoUYjXAtZMEOYpRWG-198" value="Publish" style="shape=rhombus;perimeter=rhombusPerimeter;whiteSpace=wrap;html=1;align=center;fillColor=#d5e8d4;strokeColor=#82b366;" parent="1" vertex="1">
          <mxGeometry x="724" y="538" width="108" height="50" as="geometry" />
        </mxCell>
        <mxCell id="qMSzoUYjXAtZMEOYpRWG-200" value="" style="endArrow=none;html=1;rounded=0;" parent="1" edge="1">
          <mxGeometry relative="1" as="geometry">
            <mxPoint x="777.8953125000003" y="672" as="sourcePoint" />
            <mxPoint x="777" y="588" as="targetPoint" />
            <Array as="points" />
          </mxGeometry>
        </mxCell>
        <mxCell id="qMSzoUYjXAtZMEOYpRWG-202" value="" style="endArrow=none;html=1;rounded=0;" parent="1" edge="1">
          <mxGeometry relative="1" as="geometry">
            <mxPoint x="777.6600000000001" y="708" as="sourcePoint" />
            <mxPoint x="778" y="660" as="targetPoint" />
            <Array as="points">
              <mxPoint x="777.33" y="626" />
            </Array>
          </mxGeometry>
        </mxCell>
        <mxCell id="qMSzoUYjXAtZMEOYpRWG-203" value="Publisher" style="whiteSpace=wrap;html=1;align=center;fillColor=#B5739D;strokeColor=#CDA2BE;" parent="1" vertex="1">
          <mxGeometry x="724" y="672" width="100" height="54" as="geometry" />
        </mxCell>
        <mxCell id="qMSzoUYjXAtZMEOYpRWG-204" value="" style="endArrow=none;html=1;rounded=0;" parent="1" edge="1">
          <mxGeometry relative="1" as="geometry">
            <mxPoint x="564" y="698.33" as="sourcePoint" />
            <mxPoint x="724" y="698.33" as="targetPoint" />
          </mxGeometry>
        </mxCell>
        <mxCell id="qMSzoUYjXAtZMEOYpRWG-205" value="" style="endArrow=none;html=1;rounded=0;" parent="1" edge="1">
          <mxGeometry relative="1" as="geometry">
            <mxPoint x="824" y="698.33" as="sourcePoint" />
            <mxPoint x="984" y="698.33" as="targetPoint" />
          </mxGeometry>
        </mxCell>
        <mxCell id="qMSzoUYjXAtZMEOYpRWG-211" value="" style="endArrow=none;html=1;rounded=0;entryX=0.5;entryY=1;entryDx=0;entryDy=0;exitX=0.5;exitY=0;exitDx=0;exitDy=0;" parent="1" edge="1">
          <mxGeometry relative="1" as="geometry">
            <mxPoint x="674" y="822" as="sourcePoint" />
            <mxPoint x="744" y="724" as="targetPoint" />
            <Array as="points" />
          </mxGeometry>
        </mxCell>
        <mxCell id="qMSzoUYjXAtZMEOYpRWG-212" value="" style="endArrow=none;html=1;rounded=0;entryX=0.5;entryY=1;entryDx=0;entryDy=0;exitX=0.5;exitY=0;exitDx=0;exitDy=0;" parent="1" source="qMSzoUYjXAtZMEOYpRWG-216" edge="1">
          <mxGeometry relative="1" as="geometry">
            <mxPoint x="798" y="852" as="sourcePoint" />
            <mxPoint x="798" y="726" as="targetPoint" />
            <Array as="points" />
          </mxGeometry>
        </mxCell>
        <mxCell id="qMSzoUYjXAtZMEOYpRWG-213" value="Publisher Name" style="ellipse;whiteSpace=wrap;html=1;align=center;fillColor=#fff2cc;strokeColor=#d6b656;" parent="1" vertex="1">
          <mxGeometry x="474" y="679" width="100" height="40" as="geometry" />
        </mxCell>
        <mxCell id="qMSzoUYjXAtZMEOYpRWG-216" value="Email ID" style="ellipse;whiteSpace=wrap;html=1;align=center;fillColor=#fff2cc;strokeColor=#d6b656;" parent="1" vertex="1">
          <mxGeometry x="804" y="822" width="100" height="40" as="geometry" />
        </mxCell>
        <mxCell id="qMSzoUYjXAtZMEOYpRWG-217" value="Publisher ID" style="ellipse;whiteSpace=wrap;html=1;align=center;fillColor=#fff2cc;strokeColor=#d6b656;" parent="1" vertex="1">
          <mxGeometry x="984" y="679" width="100" height="40" as="geometry" />
        </mxCell>
        <mxCell id="qMSzoUYjXAtZMEOYpRWG-218" value="Contact No" style="ellipse;whiteSpace=wrap;html=1;align=center;fillColor=#fff2cc;strokeColor=#d6b656;" parent="1" vertex="1">
          <mxGeometry x="600" y="816" width="100" height="40" as="geometry" />
        </mxCell>
        <mxCell id="qMSzoUYjXAtZMEOYpRWG-219" value="" style="fontSize=12;html=1;endArrow=ERmany;rounded=0;" parent="1" edge="1">
          <mxGeometry width="100" height="100" relative="1" as="geometry">
            <mxPoint x="777.63" y="312" as="sourcePoint" />
            <mxPoint x="777.92" y="348" as="targetPoint" />
            <Array as="points" />
          </mxGeometry>
        </mxCell>
        <mxCell id="qMSzoUYjXAtZMEOYpRWG-220" value="Issue/&lt;br&gt;Receive" style="shape=rhombus;perimeter=rhombusPerimeter;whiteSpace=wrap;html=1;align=center;fillColor=#d5e8d4;strokeColor=#82b366;" parent="1" vertex="1">
          <mxGeometry x="733.5" y="258" width="89" height="54" as="geometry" />
        </mxCell>
        <mxCell id="qMSzoUYjXAtZMEOYpRWG-242" value="" style="endArrow=none;html=1;rounded=0;" parent="1" edge="1">
          <mxGeometry relative="1" as="geometry">
            <mxPoint x="1002" y="368" as="sourcePoint" />
            <mxPoint x="1110" y="368" as="targetPoint" />
          </mxGeometry>
        </mxCell>
        <mxCell id="qMSzoUYjXAtZMEOYpRWG-245" value="Member" style="rounded=1;arcSize=10;whiteSpace=wrap;html=1;align=center;fillColor=#B5739D;strokeColor=#CDA2BE;" parent="1" vertex="1">
          <mxGeometry x="258" y="66" width="96" height="42" as="geometry" />
        </mxCell>
        <mxCell id="qMSzoUYjXAtZMEOYpRWG-253" value="" style="endArrow=none;html=1;rounded=0;entryX=0.5;entryY=1;entryDx=0;entryDy=0;" parent="1" target="qMSzoUYjXAtZMEOYpRWG-266" edge="1">
          <mxGeometry relative="1" as="geometry">
            <mxPoint x="306" y="68" as="sourcePoint" />
            <mxPoint x="390" y="-28" as="targetPoint" />
            <Array as="points" />
          </mxGeometry>
        </mxCell>
        <mxCell id="qMSzoUYjXAtZMEOYpRWG-254" value="" style="endArrow=none;html=1;rounded=0;exitX=0.25;exitY=0;exitDx=0;exitDy=0;" parent="1" source="qMSzoUYjXAtZMEOYpRWG-245" edge="1">
          <mxGeometry relative="1" as="geometry">
            <mxPoint x="270" y="54" as="sourcePoint" />
            <mxPoint x="216" y="-30" as="targetPoint" />
            <Array as="points" />
          </mxGeometry>
        </mxCell>
        <mxCell id="qMSzoUYjXAtZMEOYpRWG-257" value="" style="endArrow=none;html=1;rounded=0;" parent="1" edge="1">
          <mxGeometry relative="1" as="geometry">
            <mxPoint x="804" y="388" as="sourcePoint" />
            <mxPoint x="816" y="472" as="targetPoint" />
            <Array as="points" />
          </mxGeometry>
        </mxCell>
        <mxCell id="qMSzoUYjXAtZMEOYpRWG-258" value="" style="endArrow=none;html=1;rounded=0;" parent="1" edge="1">
          <mxGeometry relative="1" as="geometry">
            <mxPoint x="827" y="388" as="sourcePoint" />
            <mxPoint x="876" y="420" as="targetPoint" />
            <Array as="points">
              <mxPoint x="827" y="388" />
            </Array>
          </mxGeometry>
        </mxCell>
        <mxCell id="qMSzoUYjXAtZMEOYpRWG-259" value="" style="endArrow=none;html=1;rounded=0;" parent="1" target="qMSzoUYjXAtZMEOYpRWG-264" edge="1">
          <mxGeometry relative="1" as="geometry">
            <mxPoint x="354" y="76" as="sourcePoint" />
            <mxPoint x="600" y="24" as="targetPoint" />
          </mxGeometry>
        </mxCell>
        <mxCell id="qMSzoUYjXAtZMEOYpRWG-261" value="" style="endArrow=none;html=1;rounded=0;exitX=0.25;exitY=0;exitDx=0;exitDy=0;" parent="1" target="qMSzoUYjXAtZMEOYpRWG-260" edge="1">
          <mxGeometry relative="1" as="geometry">
            <mxPoint x="258" y="84" as="sourcePoint" />
            <mxPoint x="-30" y="36" as="targetPoint" />
            <Array as="points" />
          </mxGeometry>
        </mxCell>
        <mxCell id="qMSzoUYjXAtZMEOYpRWG-260" value="Member Name" style="ellipse;whiteSpace=wrap;html=1;align=center;fillColor=#fff2cc;strokeColor=#d6b656;" parent="1" vertex="1">
          <mxGeometry x="-66" width="100" height="40" as="geometry" />
        </mxCell>
        <mxCell id="qMSzoUYjXAtZMEOYpRWG-262" value="Date of Joining" style="ellipse;whiteSpace=wrap;html=1;align=center;fillColor=#fff2cc;strokeColor=#d6b656;" parent="1" vertex="1">
          <mxGeometry x="174" y="-60" width="100" height="40" as="geometry" />
        </mxCell>
        <mxCell id="qMSzoUYjXAtZMEOYpRWG-264" value="Member ID" style="ellipse;whiteSpace=wrap;html=1;align=center;fillColor=#fff2cc;strokeColor=#d6b656;" parent="1" vertex="1">
          <mxGeometry x="574" y="8" width="100" height="40" as="geometry" />
        </mxCell>
        <mxCell id="qMSzoUYjXAtZMEOYpRWG-266" value="Contact No" style="ellipse;whiteSpace=wrap;html=1;align=center;fillColor=#fff2cc;strokeColor=#d6b656;" parent="1" vertex="1">
          <mxGeometry x="312" y="-78" width="100" height="40" as="geometry" />
        </mxCell>
        <mxCell id="qMSzoUYjXAtZMEOYpRWG-275" value="" style="endArrow=none;html=1;rounded=0;exitX=0.75;exitY=0;exitDx=0;exitDy=0;" parent="1" source="qMSzoUYjXAtZMEOYpRWG-245" edge="1">
          <mxGeometry relative="1" as="geometry">
            <mxPoint x="354" y="54" as="sourcePoint" />
            <mxPoint x="492" y="-36" as="targetPoint" />
          </mxGeometry>
        </mxCell>
        <mxCell id="qMSzoUYjXAtZMEOYpRWG-276" value="Email ID" style="ellipse;whiteSpace=wrap;html=1;align=center;fillColor=#fff2cc;strokeColor=#d6b656;" parent="1" vertex="1">
          <mxGeometry x="474" y="-66" width="100" height="40" as="geometry" />
        </mxCell>
        <mxCell id="qMSzoUYjXAtZMEOYpRWG-278" value="" style="fontSize=12;html=1;endArrow=ERmany;rounded=0;" parent="1" edge="1">
          <mxGeometry width="100" height="100" relative="1" as="geometry">
            <mxPoint x="438" y="88.89" as="sourcePoint" />
            <mxPoint x="354" y="88.89" as="targetPoint" />
            <Array as="points" />
          </mxGeometry>
        </mxCell>
        <mxCell id="qMSzoUYjXAtZMEOYpRWG-279" value="Send Request" style="shape=rhombus;perimeter=rhombusPerimeter;whiteSpace=wrap;html=1;align=center;fillColor=#d5e8d4;strokeColor=#82b366;" parent="1" vertex="1">
          <mxGeometry x="432.5" y="66" width="113.5" height="48" as="geometry" />
        </mxCell>
        <mxCell id="qMSzoUYjXAtZMEOYpRWG-281" value="" style="endArrow=none;html=1;rounded=0;exitX=1;exitY=0.5;exitDx=0;exitDy=0;" parent="1" source="qMSzoUYjXAtZMEOYpRWG-279" edge="1">
          <mxGeometry relative="1" as="geometry">
            <mxPoint x="540" y="85" as="sourcePoint" />
            <mxPoint x="780" y="85" as="targetPoint" />
            <Array as="points" />
          </mxGeometry>
        </mxCell>
        <mxCell id="qMSzoUYjXAtZMEOYpRWG-290" value="" style="fontSize=12;html=1;endArrow=ERmany;rounded=0;" parent="1" edge="1">
          <mxGeometry width="100" height="100" relative="1" as="geometry">
            <mxPoint x="777.17" y="84" as="sourcePoint" />
            <mxPoint x="777.17" y="258" as="targetPoint" />
            <Array as="points" />
          </mxGeometry>
        </mxCell>
        <mxCell id="qMSzoUYjXAtZMEOYpRWG-291" value="Empolyee" style="whiteSpace=wrap;html=1;align=center;fillColor=#B5739D;strokeColor=#CDA2BE;" parent="1" vertex="1">
          <mxGeometry x="724" y="144" width="100" height="40" as="geometry" />
        </mxCell>
        <mxCell id="qMSzoUYjXAtZMEOYpRWG-292" value="" style="edgeStyle=entityRelationEdgeStyle;fontSize=12;html=1;endArrow=ERmany;rounded=0;" parent="1" source="qMSzoUYjXAtZMEOYpRWG-294" edge="1">
          <mxGeometry width="100" height="100" relative="1" as="geometry">
            <mxPoint x="102" y="172" as="sourcePoint" />
            <mxPoint x="724" y="172" as="targetPoint" />
          </mxGeometry>
        </mxCell>
        <mxCell id="qMSzoUYjXAtZMEOYpRWG-309" value="" style="fontSize=12;html=1;endArrow=ERmany;rounded=0;" parent="1" edge="1">
          <mxGeometry width="100" height="100" relative="1" as="geometry">
            <mxPoint x="384" y="672" as="sourcePoint" />
            <mxPoint x="750" y="389.5" as="targetPoint" />
            <Array as="points">
              <mxPoint x="750" y="522" />
              <mxPoint x="750" y="456" />
            </Array>
          </mxGeometry>
        </mxCell>
        <mxCell id="qMSzoUYjXAtZMEOYpRWG-310" value="Vendor" style="whiteSpace=wrap;html=1;align=center;fillColor=#B5739D;strokeColor=#CDA2BE;" parent="1" vertex="1">
          <mxGeometry x="294" y="654" width="100" height="40" as="geometry" />
        </mxCell>
        <mxCell id="qMSzoUYjXAtZMEOYpRWG-314" value="" style="endArrow=none;html=1;rounded=0;" parent="1" edge="1">
          <mxGeometry relative="1" as="geometry">
            <mxPoint x="120" y="768" as="sourcePoint" />
            <mxPoint x="318" y="694" as="targetPoint" />
          </mxGeometry>
        </mxCell>
        <mxCell id="qMSzoUYjXAtZMEOYpRWG-315" value="" style="endArrow=none;html=1;rounded=0;" parent="1" edge="1">
          <mxGeometry relative="1" as="geometry">
            <mxPoint x="324" y="694" as="sourcePoint" />
            <mxPoint x="306" y="834" as="targetPoint" />
          </mxGeometry>
        </mxCell>
        <mxCell id="qMSzoUYjXAtZMEOYpRWG-316" value="" style="endArrow=none;html=1;rounded=0;" parent="1" edge="1">
          <mxGeometry relative="1" as="geometry">
            <mxPoint x="342" y="694" as="sourcePoint" />
            <mxPoint x="378" y="816" as="targetPoint" />
          </mxGeometry>
        </mxCell>
        <mxCell id="qMSzoUYjXAtZMEOYpRWG-317" value="" style="endArrow=none;html=1;rounded=0;" parent="1" edge="1">
          <mxGeometry relative="1" as="geometry">
            <mxPoint x="14" y="672" as="sourcePoint" />
            <mxPoint x="294" y="672" as="targetPoint" />
          </mxGeometry>
        </mxCell>
        <mxCell id="qMSzoUYjXAtZMEOYpRWG-318" value="Address" style="ellipse;whiteSpace=wrap;html=1;align=center;fillColor=#fff2cc;strokeColor=#d6b656;" parent="1" vertex="1">
          <mxGeometry x="-72" y="648" width="100" height="40" as="geometry" />
        </mxCell>
        <mxCell id="qMSzoUYjXAtZMEOYpRWG-319" value="Contact No" style="ellipse;whiteSpace=wrap;html=1;align=center;fillColor=#fff2cc;strokeColor=#d6b656;" parent="1" vertex="1">
          <mxGeometry x="52" y="762" width="100" height="40" as="geometry" />
        </mxCell>
        <mxCell id="qMSzoUYjXAtZMEOYpRWG-320" value="Vendor Name" style="ellipse;whiteSpace=wrap;html=1;align=center;fillColor=#fff2cc;strokeColor=#d6b656;" parent="1" vertex="1">
          <mxGeometry x="252" y="834" width="100" height="40" as="geometry" />
        </mxCell>
        <mxCell id="qMSzoUYjXAtZMEOYpRWG-321" value="Vendor ID" style="ellipse;whiteSpace=wrap;html=1;align=center;fillColor=#fff2cc;strokeColor=#d6b656;" parent="1" vertex="1">
          <mxGeometry x="374" y="804" width="100" height="40" as="geometry" />
        </mxCell>
        <mxCell id="qMSzoUYjXAtZMEOYpRWG-325" value="Sales" style="shape=rhombus;perimeter=rhombusPerimeter;whiteSpace=wrap;html=1;align=center;rotation=-15;fillColor=#d5e8d4;strokeColor=#82b366;" parent="1" vertex="1">
          <mxGeometry x="497.62" y="589.1" width="72" height="42" as="geometry" />
        </mxCell>
        <mxCell id="qMSzoUYjXAtZMEOYpRWG-328" value="" style="edgeStyle=entityRelationEdgeStyle;fontSize=12;html=1;endArrow=ERmany;rounded=0;exitX=1;exitY=0.5;exitDx=0;exitDy=0;" parent="1" source="qMSzoUYjXAtZMEOYpRWG-329" edge="1">
          <mxGeometry width="100" height="100" relative="1" as="geometry">
            <mxPoint x="18" y="90" as="sourcePoint" />
            <mxPoint x="258" y="88.89" as="targetPoint" />
          </mxGeometry>
        </mxCell>
        <mxCell id="qMSzoUYjXAtZMEOYpRWG-329" value="Borrowing" style="whiteSpace=wrap;html=1;align=center;fillColor=#B5739D;strokeColor=#CDA2BE;" parent="1" vertex="1">
          <mxGeometry x="-378" y="70" width="100" height="40" as="geometry" />
        </mxCell>
        <mxCell id="qMSzoUYjXAtZMEOYpRWG-330" value="" style="endArrow=none;html=1;rounded=0;" parent="1" edge="1">
          <mxGeometry relative="1" as="geometry">
            <mxPoint x="-516" y="164" as="sourcePoint" />
            <mxPoint x="-356" y="110" as="targetPoint" />
          </mxGeometry>
        </mxCell>
        <mxCell id="qMSzoUYjXAtZMEOYpRWG-331" value="" style="endArrow=none;html=1;rounded=0;" parent="1" edge="1">
          <mxGeometry relative="1" as="geometry">
            <mxPoint x="-438" y="236" as="sourcePoint" />
            <mxPoint x="-336" y="110" as="targetPoint" />
          </mxGeometry>
        </mxCell>
        <mxCell id="qMSzoUYjXAtZMEOYpRWG-332" value="" style="endArrow=none;html=1;rounded=0;" parent="1" edge="1">
          <mxGeometry relative="1" as="geometry">
            <mxPoint x="-354" y="240" as="sourcePoint" />
            <mxPoint x="-307" y="110" as="targetPoint" />
          </mxGeometry>
        </mxCell>
        <mxCell id="qMSzoUYjXAtZMEOYpRWG-333" value="" style="endArrow=none;html=1;rounded=0;" parent="1" edge="1">
          <mxGeometry relative="1" as="geometry">
            <mxPoint x="-294" y="110" as="sourcePoint" />
            <mxPoint x="-210" y="222" as="targetPoint" />
          </mxGeometry>
        </mxCell>
        <mxCell id="qMSzoUYjXAtZMEOYpRWG-334" value="Member ID" style="ellipse;whiteSpace=wrap;html=1;align=center;fillColor=#fff2cc;strokeColor=#d6b656;" parent="1" vertex="1">
          <mxGeometry x="-606" y="150" width="100" height="40" as="geometry" />
        </mxCell>
        <mxCell id="qMSzoUYjXAtZMEOYpRWG-335" value="Book ID" style="ellipse;whiteSpace=wrap;html=1;align=center;fillColor=#fff2cc;strokeColor=#d6b656;" parent="1" vertex="1">
          <mxGeometry x="-522" y="228" width="100" height="40" as="geometry" />
        </mxCell>
        <mxCell id="qMSzoUYjXAtZMEOYpRWG-336" value="Due Date" style="ellipse;whiteSpace=wrap;html=1;align=center;fillColor=#fff2cc;strokeColor=#d6b656;" parent="1" vertex="1">
          <mxGeometry x="-402" y="238" width="100" height="40" as="geometry" />
        </mxCell>
        <mxCell id="qMSzoUYjXAtZMEOYpRWG-337" value="Return Date" style="ellipse;whiteSpace=wrap;html=1;align=center;fillColor=#fff2cc;strokeColor=#d6b656;" parent="1" vertex="1">
          <mxGeometry x="-252" y="218" width="100" height="40" as="geometry" />
        </mxCell>
        <mxCell id="qMSzoUYjXAtZMEOYpRWG-346" value="Fine" style="whiteSpace=wrap;html=1;align=center;fillColor=#B5739D;strokeColor=#CDA2BE;" parent="1" vertex="1">
          <mxGeometry x="-82" y="-180" width="100" height="40" as="geometry" />
        </mxCell>
        <mxCell id="qMSzoUYjXAtZMEOYpRWG-348" value="" style="fontSize=12;html=1;endArrow=ERmany;rounded=0;exitX=0.5;exitY=1;exitDx=0;exitDy=0;entryX=0;entryY=0;entryDx=0;entryDy=0;" parent="1" source="qMSzoUYjXAtZMEOYpRWG-356" target="qMSzoUYjXAtZMEOYpRWG-245" edge="1">
          <mxGeometry width="100" height="100" relative="1" as="geometry">
            <mxPoint x="783.63" y="318" as="sourcePoint" />
            <mxPoint x="264" y="72" as="targetPoint" />
            <Array as="points" />
          </mxGeometry>
        </mxCell>
        <mxCell id="qMSzoUYjXAtZMEOYpRWG-350" value="" style="endArrow=none;html=1;rounded=0;" parent="1" edge="1">
          <mxGeometry relative="1" as="geometry">
            <mxPoint x="18" y="-160.83" as="sourcePoint" />
            <mxPoint x="178" y="-160.83" as="targetPoint" />
          </mxGeometry>
        </mxCell>
        <mxCell id="qMSzoUYjXAtZMEOYpRWG-351" value="" style="endArrow=none;html=1;rounded=0;" parent="1" edge="1">
          <mxGeometry relative="1" as="geometry">
            <mxPoint x="-242" y="-160.83" as="sourcePoint" />
            <mxPoint x="-82" y="-160.83" as="targetPoint" />
          </mxGeometry>
        </mxCell>
        <mxCell id="qMSzoUYjXAtZMEOYpRWG-352" value="" style="endArrow=none;html=1;rounded=0;" parent="1" edge="1">
          <mxGeometry relative="1" as="geometry">
            <mxPoint x="-30" y="-180" as="sourcePoint" />
            <mxPoint x="-30" y="-318" as="targetPoint" />
          </mxGeometry>
        </mxCell>
        <mxCell id="qMSzoUYjXAtZMEOYpRWG-353" value="Member ID" style="ellipse;whiteSpace=wrap;html=1;align=center;fillColor=#fff2cc;strokeColor=#d6b656;" parent="1" vertex="1">
          <mxGeometry x="-330" y="-186" width="100" height="40" as="geometry" />
        </mxCell>
        <mxCell id="qMSzoUYjXAtZMEOYpRWG-354" value="Payment Date" style="ellipse;whiteSpace=wrap;html=1;align=center;fillColor=#fff2cc;strokeColor=#d6b656;" parent="1" vertex="1">
          <mxGeometry x="174" y="-186" width="100" height="40" as="geometry" />
        </mxCell>
        <mxCell id="qMSzoUYjXAtZMEOYpRWG-355" value="Fine Amount" style="ellipse;whiteSpace=wrap;html=1;align=center;fillColor=#fff2cc;strokeColor=#d6b656;" parent="1" vertex="1">
          <mxGeometry x="-84" y="-354" width="100" height="40" as="geometry" />
        </mxCell>
        <mxCell id="qMSzoUYjXAtZMEOYpRWG-356" value="Pay" style="shape=rhombus;perimeter=rhombusPerimeter;whiteSpace=wrap;html=1;align=center;rotation=-45;fillColor=#d5e8d4;strokeColor=#82b366;" parent="1" vertex="1">
          <mxGeometry x="34" y="-86" width="110" height="56" as="geometry" />
        </mxCell>
        <mxCell id="qMSzoUYjXAtZMEOYpRWG-359" value="" style="endArrow=none;html=1;rounded=0;entryX=0.5;entryY=0;entryDx=0;entryDy=0;exitX=0.75;exitY=1;exitDx=0;exitDy=0;" parent="1" source="qMSzoUYjXAtZMEOYpRWG-346" target="qMSzoUYjXAtZMEOYpRWG-356" edge="1">
          <mxGeometry relative="1" as="geometry">
            <mxPoint x="-36" y="-114" as="sourcePoint" />
            <mxPoint x="124" y="-114" as="targetPoint" />
            <Array as="points" />
          </mxGeometry>
        </mxCell>
        <mxCell id="qMSzoUYjXAtZMEOYpRWG-366" value="" style="endArrow=none;html=1;rounded=0;" parent="1" edge="1">
          <mxGeometry relative="1" as="geometry">
            <mxPoint x="792" y="144" as="sourcePoint" />
            <mxPoint x="792" y="-72" as="targetPoint" />
          </mxGeometry>
        </mxCell>
        <mxCell id="qMSzoUYjXAtZMEOYpRWG-367" value="" style="endArrow=none;html=1;rounded=0;" parent="1" edge="1">
          <mxGeometry relative="1" as="geometry">
            <mxPoint x="822" y="147.77999999999997" as="sourcePoint" />
            <mxPoint x="912" y="-36" as="targetPoint" />
          </mxGeometry>
        </mxCell>
        <mxCell id="qMSzoUYjXAtZMEOYpRWG-368" value="" style="endArrow=none;html=1;rounded=0;" parent="1" source="qMSzoUYjXAtZMEOYpRWG-371" edge="1">
          <mxGeometry relative="1" as="geometry">
            <mxPoint x="828" y="168" as="sourcePoint" />
            <mxPoint x="1026" y="42" as="targetPoint" />
          </mxGeometry>
        </mxCell>
        <mxCell id="qMSzoUYjXAtZMEOYpRWG-369" value="EmpID" style="ellipse;whiteSpace=wrap;html=1;align=center;fillColor=#fff2cc;strokeColor=#d6b656;" parent="1" vertex="1">
          <mxGeometry x="732" y="-106" width="100" height="40" as="geometry" />
        </mxCell>
        <mxCell id="qMSzoUYjXAtZMEOYpRWG-370" value="Emp Name" style="ellipse;whiteSpace=wrap;html=1;align=center;fillColor=#fff2cc;strokeColor=#d6b656;" parent="1" vertex="1">
          <mxGeometry x="876" y="-54" width="100" height="40" as="geometry" />
        </mxCell>
        <mxCell id="qMSzoUYjXAtZMEOYpRWG-372" value="" style="endArrow=none;html=1;rounded=0;" parent="1" target="qMSzoUYjXAtZMEOYpRWG-371" edge="1">
          <mxGeometry relative="1" as="geometry">
            <mxPoint x="822" y="168" as="sourcePoint" />
            <mxPoint x="1026" y="42" as="targetPoint" />
          </mxGeometry>
        </mxCell>
        <mxCell id="qMSzoUYjXAtZMEOYpRWG-371" value="Contact No" style="ellipse;whiteSpace=wrap;html=1;align=center;fillColor=#fff2cc;strokeColor=#d6b656;" parent="1" vertex="1">
          <mxGeometry x="1000" y="8" width="100" height="40" as="geometry" />
        </mxCell>
        <mxCell id="qMSzoUYjXAtZMEOYpRWG-374" value="" style="endArrow=none;html=1;rounded=0;" parent="1" edge="1">
          <mxGeometry relative="1" as="geometry">
            <mxPoint x="108" y="196" as="sourcePoint" />
            <mxPoint x="108" y="366" as="targetPoint" />
          </mxGeometry>
        </mxCell>
        <mxCell id="qMSzoUYjXAtZMEOYpRWG-294" value="Add" style="shape=rhombus;perimeter=rhombusPerimeter;whiteSpace=wrap;html=1;align=center;fillColor=#d5e8d4;strokeColor=#82b366;" parent="1" vertex="1">
          <mxGeometry x="62" y="140" width="90" height="60" as="geometry" />
        </mxCell>
        <mxCell id="wR5b7CkcjISlWNXwQBXE-2" value="" style="endArrow=none;html=1;rounded=0;" edge="1" parent="1" target="wR5b7CkcjISlWNXwQBXE-3">
          <mxGeometry relative="1" as="geometry">
            <mxPoint x="1210" y="360" as="sourcePoint" />
            <mxPoint x="1370" y="360" as="targetPoint" />
          </mxGeometry>
        </mxCell>
        <mxCell id="wR5b7CkcjISlWNXwQBXE-3" value="Contact No" style="ellipse;whiteSpace=wrap;html=1;align=center;fillColor=#fff2cc;strokeColor=#d6b656;" vertex="1" parent="1">
          <mxGeometry x="1320" y="340" width="100" height="40" as="geometry" />
        </mxCell>
        <mxCell id="wR5b7CkcjISlWNXwQBXE-4" value="" style="endArrow=none;html=1;rounded=0;exitX=0.25;exitY=0;exitDx=0;exitDy=0;" edge="1" parent="1" source="wR5b7CkcjISlWNXwQBXE-5">
          <mxGeometry relative="1" as="geometry">
            <mxPoint x="294" y="-96" as="sourcePoint" />
            <mxPoint x="288" y="-102" as="targetPoint" />
          </mxGeometry>
        </mxCell>
        <mxCell id="wR5b7CkcjISlWNXwQBXE-6" value="" style="endArrow=none;html=1;rounded=0;exitX=0.25;exitY=0;exitDx=0;exitDy=0;" edge="1" parent="1" source="qMSzoUYjXAtZMEOYpRWG-245" target="wR5b7CkcjISlWNXwQBXE-5">
          <mxGeometry relative="1" as="geometry">
            <mxPoint x="282" y="66" as="sourcePoint" />
            <mxPoint x="288" y="-102" as="targetPoint" />
          </mxGeometry>
        </mxCell>
        <mxCell id="wR5b7CkcjISlWNXwQBXE-5" value="Address" style="ellipse;whiteSpace=wrap;html=1;align=center;fillColor=#fff2cc;strokeColor=#d6b656;" vertex="1" parent="1">
          <mxGeometry x="240" y="-126" width="100" height="40" as="geometry" />
        </mxCell>
        <mxCell id="wR5b7CkcjISlWNXwQBXE-7" value="" style="endArrow=none;html=1;rounded=0;" edge="1" parent="1">
          <mxGeometry relative="1" as="geometry">
            <mxPoint x="-190" y="359.09000000000003" as="sourcePoint" />
            <mxPoint x="-30" y="359.09000000000003" as="targetPoint" />
          </mxGeometry>
        </mxCell>
        <mxCell id="wR5b7CkcjISlWNXwQBXE-8" value="" style="endArrow=none;html=1;rounded=0;entryX=0;entryY=0.75;entryDx=0;entryDy=0;" edge="1" parent="1" target="qMSzoUYjXAtZMEOYpRWG-134">
          <mxGeometry relative="1" as="geometry">
            <mxPoint x="-174" y="474" as="sourcePoint" />
            <mxPoint x="-26" y="380" as="targetPoint" />
          </mxGeometry>
        </mxCell>
        <mxCell id="wR5b7CkcjISlWNXwQBXE-9" value="Email ID" style="ellipse;whiteSpace=wrap;html=1;align=center;fillColor=#fff2cc;strokeColor=#d6b656;" vertex="1" parent="1">
          <mxGeometry x="-270" y="340" width="100" height="40" as="geometry" />
        </mxCell>
        <mxCell id="wR5b7CkcjISlWNXwQBXE-10" value="Contact No" style="ellipse;whiteSpace=wrap;html=1;align=center;fillColor=#fff2cc;strokeColor=#d6b656;" vertex="1" parent="1">
          <mxGeometry x="-222" y="468" width="100" height="40" as="geometry" />
        </mxCell>
        <mxCell id="wR5b7CkcjISlWNXwQBXE-12" value="" style="endArrow=none;html=1;rounded=0;exitX=0;exitY=0.25;exitDx=0;exitDy=0;" edge="1" parent="1" source="qMSzoUYjXAtZMEOYpRWG-329" target="wR5b7CkcjISlWNXwQBXE-13">
          <mxGeometry relative="1" as="geometry">
            <mxPoint x="-546" y="89.09" as="sourcePoint" />
            <mxPoint x="-386" y="89.09" as="targetPoint" />
          </mxGeometry>
        </mxCell>
        <mxCell id="wR5b7CkcjISlWNXwQBXE-13" value="Borrow ID" style="ellipse;whiteSpace=wrap;html=1;align=center;fillColor=#fff2cc;strokeColor=#d6b656;" vertex="1" parent="1">
          <mxGeometry x="-642" y="65.99999999999991" width="100" height="40" as="geometry" />
        </mxCell>
        <mxCell id="wR5b7CkcjISlWNXwQBXE-14" value="" style="endArrow=none;html=1;rounded=0;exitX=0;exitY=0;exitDx=0;exitDy=0;" edge="1" parent="1" source="qMSzoUYjXAtZMEOYpRWG-346" target="wR5b7CkcjISlWNXwQBXE-15">
          <mxGeometry relative="1" as="geometry">
            <mxPoint x="-198" y="-276" as="sourcePoint" />
            <mxPoint x="-96" y="-180" as="targetPoint" />
          </mxGeometry>
        </mxCell>
        <mxCell id="wR5b7CkcjISlWNXwQBXE-15" value="Borrow ID" style="ellipse;whiteSpace=wrap;html=1;align=center;fillColor=#fff2cc;strokeColor=#d6b656;" vertex="1" parent="1">
          <mxGeometry x="-230" y="-288" width="100" height="42" as="geometry" />
        </mxCell>
      </root>
    </mxGraphModel>
  </diagram>
</mxfile>
